<?xml version="1.0" encoding="iso-8859-1"?>
<!-- Generator: Adobe Illustrator 16.0.0, SVG Export Plug-In . SVG Version: 6.00 Build 0)  -->
<!DOCTYPE svg PUBLIC "-//W3C//DTD SVG 1.1//EN" "http://www.w3.org/Graphics/SVG/1.1/DTD/svg11.dtd">
<svg version="1.1" id="Capa_1" xmlns="http://www.w3.org/2000/svg" xmlns:xlink="http://www.w3.org/1999/xlink" x="0px" y="0px"
	 width="879.799px" height="879.8px" viewBox="0 0 879.799 879.8" style="enable-background:new 0 0 879.799 879.8;"
	 xml:space="preserve">
<g>
	<path d="M869.2,526.101V411.8c0-48.199-39.299-87.5-87.5-87.5h-86v75h86c6.9,0,12.5,5.601,12.5,12.5v114.301
		c0,64-41.299,118.6-98.6,138.5c-1,27.8-6.4,54.899-16.199,80.8c47.1-6.7,90.699-28.4,124.898-62.7
		C846.1,640.9,869.2,585.3,869.2,526.101z"/>
	<path d="M235,879.8h206.4c91,0,169.399-54.199,204.6-132.1c12.699-28.1,19.799-59.4,19.799-92.3V324.3v-54.8
		c0-24.8-20.1-44.9-44.898-44.9H55.5c-24.8,0-44.9,20.1-44.9,44.9v385.9C10.6,779.3,111,879.8,235,879.8z"/>
	<path d="M40,81.5c10.7,13.6,24.9,24.3,40.3,32.3c19.3,10,40.5,16.1,61.7,21.3c16.6,4.1,33.4,7.2,49.6,12.5
		c19.3,6.2,36.2,17.3,53.5,27.5c6.699-33.7-15.5-69.6-42-88.2c-25.6-18-56.6-26.2-86.5-35.4c-17.4-5.4-34.9-11.2-51.1-19.8
		C49.1,23.1,40.8,14.3,30.6,0c-13.3,21.4-10.3,49.2,1.9,70.5C34.8,74.3,37.3,78,40,81.5z"/>
	<path d="M264.4,81.5c10.7,13.6,24.899,24.3,40.3,32.3c19.3,10,40.5,16.1,61.7,21.3c16.6,4.1,33.399,7.2,49.6,12.5
		c19.3,6.2,36.2,17.3,53.5,27.5c6.699-33.7-15.5-69.6-42-88.2c-25.6-18-56.6-26.2-86.5-35.4c-17.399-5.4-34.899-11.2-51.1-19.8
		C273.5,23.1,265.2,14.3,255,0c-13.3,21.4-10.3,49.2,1.9,70.5C259.2,74.3,261.7,78,264.4,81.5z"/>
</g>
<g>
</g>
<g>
</g>
<g>
</g>
<g>
</g>
<g>
</g>
<g>
</g>
<g>
</g>
<g>
</g>
<g>
</g>
<g>
</g>
<g>
</g>
<g>
</g>
<g>
</g>
<g>
</g>
<g>
</g>
</svg>
